<?xml version="1.0" encoding="iso-8859-1"?>
<!-- Generator: Adobe Illustrator 19.0.0, SVG Export Plug-In . SVG Version: 6.00 Build 0)  -->
<svg version="1.1" id="Layer_1" xmlns="http://www.w3.org/2000/svg" xmlns:xlink="http://www.w3.org/1999/xlink" x="0px" y="0px"
	 viewBox="0 0 512.002 512.002" style="enable-background:new 0 0 512.002 512.002;" xml:space="preserve">
<path style="fill:#CFF09E;" d="M156.86,326.184l99.141-70.021l99.141,70.021c15.928,11.249,25.47,30.019,25.47,50.096v63.281
	H131.388V376.28C131.388,356.202,140.932,337.434,156.86,326.184z"/>
<path style="fill:#507C5C;" d="M439.722,424.099h-43.946v-47.82c0-25.021-11.919-48.378-31.886-62.481l-96.786-68.359
	l-101.498-72.08c-11.932-8.427-19.055-22.524-19.055-37.711V87.601H365.45v48.048c0,15.185-7.123,29.284-19.055,37.711
	c-6.841,4.831-8.47,14.292-3.638,21.132s14.294,8.467,21.132,3.638c19.968-14.101,31.887-37.459,31.887-62.481V87.601h19.014h24.932
	c8.373,0,15.163-6.788,15.163-15.163s-6.79-15.163-15.163-15.163h-9.769V15.163c0-8.374-6.79-15.163-15.163-15.163H250.187
	c-8.373,0-15.163,6.788-15.163,15.163s6.79,15.163,15.163,15.163h149.44v26.95h-17.622c-0.459-0.042-0.922-0.07-1.392-0.07H131.388
	c-0.47,0-0.934,0.029-1.392,0.07h-17.622v-26.95h53.586c8.373,0,15.163-6.788,15.163-15.163S174.334,0,165.961,0H97.212
	c-8.373,0-15.163,6.788-15.163,15.163v42.113H72.28c-8.373,0-15.163,6.788-15.163,15.163s6.79,15.163,15.163,15.163h24.932h19.014
	v48.048c0,25.021,11.919,48.378,31.886,62.481l81.885,57.835l-81.885,57.835c-19.966,14.101-31.886,37.459-31.886,62.481v47.82
	H72.278c-8.373,0-15.163,6.788-15.163,15.163c0,8.374,6.79,15.163,15.163,15.163h9.769v42.413c0,8.374,6.79,15.163,15.163,15.163
	h164.603c8.373,0,15.163-6.788,15.163-15.163s-6.79-15.163-15.163-15.163H112.374v-26.95h19.014h249.225h19.014v26.95h-53.586
	c-8.373,0-15.163,6.788-15.163,15.163s6.79,15.163,15.163,15.163h68.749c8.373,0,15.163-6.788,15.163-15.163v-42.413h9.769
	c8.373,0,15.163-6.788,15.163-15.163C454.884,430.889,448.096,424.099,439.722,424.099z M146.551,376.28
	c0-15.185,7.123-29.284,19.055-37.711L256,274.725l90.394,63.844c11.932,8.427,19.055,22.524,19.055,37.711v47.82H146.551V376.28z"
	/>
<g>
</g>
<g>
</g>
<g>
</g>
<g>
</g>
<g>
</g>
<g>
</g>
<g>
</g>
<g>
</g>
<g>
</g>
<g>
</g>
<g>
</g>
<g>
</g>
<g>
</g>
<g>
</g>
<g>
</g>
</svg>
